<?xml version="1.0" encoding="UTF-8"?>
<svg id="Layer_1" xmlns="http://www.w3.org/2000/svg" version="1.1" viewBox="0 0 110 109">
  <!-- Generator: Adobe Illustrator 29.6.1, SVG Export Plug-In . SVG Version: 2.1.1 Build 9)  -->
  <defs>
    <style>
      .st0 {
        fill: #cbfbf1;
      }
    </style>
  </defs>
  <path class="st0" d="M17.2,10.2v34.5c0,1.5-.4,3.1-.9,4.5-.7,1.8-1.7,3.3-3.2,4.5,1.4,1.3,2.4,2.8,3.1,4.5.6,1.4.9,3,1,4.5v36.1h7.7v10.2h-15.8c-.8,0-1.6-.4-2.2-.9-.8-.9-1.2-2.1-1.1-3.3v-38.3c0-2-.5-3.9-1.6-5.5-1-1.5-2.5-2.5-4.3-2.8v-9c.9,0,1.8-.3,2.5-.8.8-.6,1.4-1.3,1.9-2.1.9-1.5,1.5-3.3,1.5-5.1V4.2c0-1.8.4-2.9,1.3-3.5C7.8.4,8.5,0,9.2,0h15.8v10.2h-7.8Z"/>
  <path class="st0" d="M85,10.2V0h15.8c.7,0,1.4.4,2,.8.8.5,1.3,1.7,1.3,3.5v36.8c0,1.8.5,3.6,1.5,5.1.5.8,1.1,1.5,1.8,2.1.7.6,1.7.9,2.6.8v9c-1.8.2-3.5,1.3-4.4,2.9-1,1.6-1.6,3.6-1.6,5.5v38.3c.1,1.2-.3,2.4-1.1,3.3-.6.5-1.3.9-2.1.9h-15.8v-10.2h7.8v-36.1c0-1.6.4-3.1.9-4.5.7-1.8,1.7-3.3,3.2-4.5-1.4-1.2-2.5-2.8-3.2-4.5-.6-1.4-.9-3-.9-4.5V10.2h-7.8Z"/>
  <path class="st0" d="M27.4,82.8c0-3.8,2.5-6.4,6.1-6.4s6,2.6,6,6.4-2.3,6.4-6.1,6.4-6-2.7-6-6.4Z"/>
  <path class="st0" d="M48.3,82.8c0-3.8,2.5-6.4,6.1-6.4s6,2.6,6,6.4-2.3,6.4-6.1,6.4-6-2.7-6-6.4Z"/>
  <path class="st0" d="M69.3,82.8c0-3.8,2.5-6.4,6.1-6.4s6,2.6,6,6.4-2.4,6.4-6.1,6.4-6-2.7-6-6.4Z"/>
</svg>